# xmcd
#
# Track frame offsets: 
#        150
#        18197
#        36391
#        53369
#        69705
#        89454
#        103080
#        122012
#        136700
#        154689
#        167154
#        185360
#        207201
#        220405
#        229490
#        246525
#        264092
#        281541
#        289420
#
# Disc length: 4138 seconds
#
# Revision: 5
# Processed by: cddbd v1.5.2PL0 Copyright (c) Steve Scherf et al.
# Submitted via: ExactAudioCopy v1.0b3
#
DISCID=18102813
DTITLE=Various Artist - KINK Live 2
DYEAR=1999
DGENRE=Acoustic
TTITLE0=Jude - I'm Sorry
TTITLE1=Sarah McLachlan - Building A Mystery
TTITLE2=Peter Himmelman - Impermanent Things
TTITLE3=Ebba Forsberg - Hold Me
TTITLE4=Marc Cohn - Already Home
TTITLE5=Lyle Lovett - Bears
TTITLE6=Steve Poltz - You Were Meant For Me
TTITLE7=Ellen Whyte and Reflex Blue - I Can Tell
TTITLE8=Sonia Dada - Phases Of The Moon
TTITLE9=Shawn Colvin - Twilight
TTITLE10=Pete Droge - Spacy And Shakin'
TTITLE11=Laura Love Band - I Am Wondering
TTITLE12=David Wilcox - Spirit Wind
TTITLE13=Kelly Joe Phelps - Poor Old Mattie
TTITLE14=McKinley - Citizen Kane
TTITLE15=Wes Cunningham - So It Goes
TTITLE16=Dee Carstensen - The Last Time It Mattered
TTITLE17=Pete Belasco - Make More Love
TTITLE18=Morcheeba - The Sea
EXTD=
EXTT0=
EXTT1=
EXTT2=
EXTT3=
EXTT4=
EXTT5=
EXTT6=
EXTT7=
EXTT8=
EXTT9=
EXTT10=
EXTT11=
EXTT12=
EXTT13=
EXTT14=
EXTT15=
EXTT16=
EXTT17=
EXTT18=
PLAYORDER=
